# xmcd
#
# Track frame offsets:
# 150
# 14637
# 27807
# 42874
# 57086
# 70735
# 84998
# 107297
# 122967
# 144169
# 158828
# 171427
# 183263
# 197046
# 206123
# 218499
#
# Disc length: 3119 seconds
#
#
# Revision: 0
# Processed by: cddbd v1.5.2PL0 Copyright (c) Steve Scherf et al.
# Submitted via: FreeRIP 2.942 
#
DISCID=d50c2d10
DTITLE=Big Bill Broonzy - An Introduction to Big Bill Broonzy
DYEAR=1900
DGENRE=Blues
TTITLE0=Baby Please Don't Go
TTITLE1=Hey Hey
TTITLE2=Backwater Blues
TTITLE3=Minding' My Own Business
TTITLE4=See See Rider
TTITLE5=All I Got Belongs to You
TTITLE6=Ridin' on Down
TTITLE7=NObody Knows The Trouble I've Seen
TTITLE8=I Got up One Mornin' Blues
TTITLE9=Treat Everybody Right
TTITLE10=It Feels So Good
TTITLE11=Black, Brown and White
TTITLE12=Key To The Highway
TTITLE13=Midnight SPecial
TTITLE14=I Get the Blues When It Rains
TTITLE15=In The Evening (When The Sun Goes Down)
EXTD=
EXTT0=
EXTT1=
EXTT2=
EXTT3=
EXTT4=
EXTT5=
EXTT6=
EXTT7=
EXTT8=
EXTT9=
EXTT10=
EXTT11=
EXTT12=
EXTT13=
EXTT14=
EXTT15=
PLAYORDER=
